{"title":"Bludgeoning Angel Dokuro-chan","uid":10453761,"size":490290376,"categoryP":"video","categoryS":"tv_shows","magnet":"?xt=urn:btih:8cb71f5205f4a09fec26f82b15c68503694127a1&amp;dn=Bludgeoning+Angel+Dokuro-chan&amp;tr=udp%3A%2F%2Ftracker.openbittorrent.com%3A80&amp;tr=udp%3A%2F%2Fopen.demonii.com%3A1337&amp;tr=udp%3A%2F%2Ftracker.coppersurfer.tk%3A6969&amp;tr=udp%3A%2F%2Fexodus.desync.com%3A6969","seeders":1,"leechers":1,"uploader":"p7trick","files":-1,"time":1404053258,"description":"watchcartoononline\n\nBludgeoning Angel Dokuro-chan eps 1-8 ENGLISH DUBBED\nBludgeoning Angel Dokuro-chan Second eps 1-4 ENGLISH DUBBED\n_________________________________________________________\n\nFormat                                   : MPEG-4\nFormat profile                           : Base Media\nCodec ID                                 : isom\nFile size                                : 74.4 MiB\nDuration                                 : 26mn 38s\nOverall bit rate                         : 390 Kbps\nWriting application                      : Lavf55.0.100\n\nVideo\nID                                       : 1\nFormat                                   : AVC\nFormat/Info                              : Advanced Video Codec\nFormat profile                           : &lt;a class=&quot;__cf_email__&quot; href=&quot;/cdn-cgi/l/email-protection&quot; data-cfemail=&quot;e2a08391878e8b8c87a2aed1ccd3&quot;&gt;[email&amp;#160;protected]&lt;/a&gt;&lt;script cf-hash='f9e31' type=&quot;text/javascript&quot;&gt;\n/* &lt;![CDATA[ */!function(){try{var t=&quot;currentScript&quot;in document?document.currentScript:function(){for(var t=document.getElementsByTagName(&quot;script&quot;),e=t.length;e--;)if(t[e].getAttribute(&quot;cf-hash&quot;))return t[e]}();if(t&amp;&amp;t.previousSibling){var e,r,n,i,c=t.previousSibling,a=c.getAttribute(&quot;data-cfemail&quot;);if(a){for(e=&quot;&quot;,r=parseInt(a.substr(0,2),16),n=2;a.length-n;n+=2)i=parseInt(a.substr(n,2),16)^r,e+=String.fromCharCode(i);e=document.createTextNode(e),c.parentNode.replaceChild(e,c)}}}catch(u){}}();/* ]]&gt; */&lt;/script&gt;\nFormat settings, CABAC                   : No\nFormat settings, ReFrames                : 5 frames\nCodec ID                                 : avc1\nCodec ID/Info                            : Advanced Video Coding\nDuration                                 : 26mn 38s\nBit rate                                 : 254 Kbps\nWidth                                    : 640 pixels\nHeight                                   : 480 pixels\nDisplay aspect ratio                     : 4:3\nFrame rate mode                          : Constant\nFrame rate                               : 50.417 fps\nColor space                              : YUV\nChroma subsampling                       : 4:2:0\nBit depth                                : 8 bits\nScan type                                : Progressive\nBits/(Pixel*Frame)                       : 0.016\nStream size                              : 48.4 MiB (65%)\nWriting library                          : x264 core 130 r2274 c832fe9\n\nAudio\nID                                       : 2\nFormat                                   : AAC\nFormat/Info                              : Advanced Audio Codec\nFormat profile                           : LC\nCodec ID                                 : 40\nDuration                                 : 26mn 38s\nBit rate mode                            : Constant\nBit rate                                 : 128 Kbps\nChannel(s)                               : 2 channels\nChannel positions                        : Front: L R\nSampling rate                            : 44.1 KHz\nCompression mode                         : Lossy\nStream size                              : 24.4 MiB (33%)\nLanguage                                 : English\n_________________________________________________________\n\nSummary:\nKusakabe Sakura, a second-year junior high school student, will at some time in the future offend God by inadvertently inventing immortality. To make things worse, the women are affected so that they stop ageing after the age of twelve, and Sakura is accused of creating a &quot;Pedophile's World&quot;.\n\nFor updates/requests:\nTwitter - @p7tricktorrent\nFacebook - /p7tricktorrent\nTPB - /user/p7trick/\nKAT - /user/iPirate7\n_________________________________________________________\n\nSEED!\n\nshare ratio:\n&quot;Scumbag = 0.1:1\nLeecher = 0.999:1\nMinimum = 1:1\nGood = 3:1\nGreat = 5:1\nAwesome = 10:1\n1337 = 100:1&quot;\n","torrent":{"xt":"urn:btih:8cb71f5205f4a09fec26f82b15c68503694127a1","amp;dn":"Bludgeoning+Angel+Dokuro-chan","amp;tr":["udp%3A%2F%2Ftracker.openbittorrent.com%3A80","udp%3A%2F%2Fopen.demonii.com%3A1337","udp%3A%2F%2Ftracker.coppersurfer.tk%3A6969","udp%3A%2F%2Fexodus.desync.com%3A6969"],"infoHash":"8cb71f5205f4a09fec26f82b15c68503694127a1","infoHashBuffer":{"type":"Buffer","data":[140,183,31,82,5,244,160,159,236,38,248,43,21,198,133,3,105,65,39,161]},"announce":[],"urlList":[]}}